<mxfile host="app.diagrams.net" modified="2023-08-31T09:16:08.706Z" agent="Mozilla/5.0 (Windows NT 10.0; Win64; x64; rv:109.0) Gecko/20100101 Firefox/116.0" etag="OS-RhjAoLGNSb2xJTZN0" version="21.7.1" type="github">
  <diagram name="Page-1" id="83S2Jtut0YvN9epJl4YK">
    <mxGraphModel dx="1434" dy="774" grid="1" gridSize="10" guides="1" tooltips="1" connect="1" arrows="1" fold="1" page="1" pageScale="1" pageWidth="850" pageHeight="1100" math="0" shadow="0">
      <root>
        <mxCell id="0" />
        <mxCell id="1" parent="0" />
        <mxCell id="hZJCGSI-fOzzTAv1BgRq-1" value="" style="rounded=0;whiteSpace=wrap;html=1;fillColor=none;" parent="1" vertex="1">
          <mxGeometry x="120" y="150" width="640" height="400" as="geometry" />
        </mxCell>
        <mxCell id="hZJCGSI-fOzzTAv1BgRq-5" value="" style="rounded=1;whiteSpace=wrap;html=1;" parent="1" vertex="1">
          <mxGeometry x="625" y="220" width="120" height="20" as="geometry" />
        </mxCell>
        <mxCell id="hZJCGSI-fOzzTAv1BgRq-8" value="User details" style="rounded=0;whiteSpace=wrap;html=1;fillColor=none;strokeColor=none;fontSize=20;align=left;" parent="1" vertex="1">
          <mxGeometry x="499" y="150" width="190" height="60" as="geometry" />
        </mxCell>
        <mxCell id="hZJCGSI-fOzzTAv1BgRq-10" value="Last Name" style="rounded=1;whiteSpace=wrap;html=1;fillColor=none;" parent="1" vertex="1">
          <mxGeometry x="499" y="280" width="120" height="20" as="geometry" />
        </mxCell>
        <mxCell id="hZJCGSI-fOzzTAv1BgRq-11" value="email" style="rounded=1;whiteSpace=wrap;html=1;fillColor=none;" parent="1" vertex="1">
          <mxGeometry x="499" y="220" width="120" height="20" as="geometry" />
        </mxCell>
        <mxCell id="hZJCGSI-fOzzTAv1BgRq-12" value="First Name" style="rounded=1;whiteSpace=wrap;html=1;fillColor=none;" parent="1" vertex="1">
          <mxGeometry x="499" y="250" width="120" height="20" as="geometry" />
        </mxCell>
        <mxCell id="hZJCGSI-fOzzTAv1BgRq-14" value="" style="rounded=1;whiteSpace=wrap;html=1;align=left;" parent="1" vertex="1">
          <mxGeometry x="625" y="280" width="120" height="20" as="geometry" />
        </mxCell>
        <mxCell id="hZJCGSI-fOzzTAv1BgRq-15" value="" style="rounded=1;whiteSpace=wrap;html=1;align=left;" parent="1" vertex="1">
          <mxGeometry x="625" y="250" width="120" height="20" as="geometry" />
        </mxCell>
        <mxCell id="hZJCGSI-fOzzTAv1BgRq-17" value="" style="rounded=1;whiteSpace=wrap;html=1;fillColor=none;" parent="1" vertex="1">
          <mxGeometry x="499" y="310" width="120" height="20" as="geometry" />
        </mxCell>
        <mxCell id="hZJCGSI-fOzzTAv1BgRq-19" value="" style="rounded=1;whiteSpace=wrap;html=1;align=left;" parent="1" vertex="1">
          <mxGeometry x="625" y="310" width="120" height="20" as="geometry" />
        </mxCell>
        <mxCell id="knRtwrUQhDC5s7jnqalS-1" value="" style="rounded=1;whiteSpace=wrap;html=1;fillColor=none;" vertex="1" parent="1">
          <mxGeometry x="499" y="340" width="120" height="20" as="geometry" />
        </mxCell>
        <mxCell id="knRtwrUQhDC5s7jnqalS-2" value="" style="rounded=1;whiteSpace=wrap;html=1;align=left;" vertex="1" parent="1">
          <mxGeometry x="625" y="340" width="120" height="20" as="geometry" />
        </mxCell>
        <mxCell id="knRtwrUQhDC5s7jnqalS-3" value="" style="rounded=1;whiteSpace=wrap;html=1;fillColor=none;" vertex="1" parent="1">
          <mxGeometry x="499" y="370" width="120" height="20" as="geometry" />
        </mxCell>
        <mxCell id="knRtwrUQhDC5s7jnqalS-4" value="" style="rounded=1;whiteSpace=wrap;html=1;align=left;" vertex="1" parent="1">
          <mxGeometry x="625" y="370" width="120" height="20" as="geometry" />
        </mxCell>
        <mxCell id="knRtwrUQhDC5s7jnqalS-5" value="" style="endArrow=none;html=1;rounded=0;exitX=0.563;exitY=1;exitDx=0;exitDy=0;exitPerimeter=0;" edge="1" parent="1" source="hZJCGSI-fOzzTAv1BgRq-1">
          <mxGeometry width="50" height="50" relative="1" as="geometry">
            <mxPoint x="430" y="200" as="sourcePoint" />
            <mxPoint x="480" y="150" as="targetPoint" />
          </mxGeometry>
        </mxCell>
      </root>
    </mxGraphModel>
  </diagram>
</mxfile>
